<?xml version="1.0" encoding="utf-8"?>
<!-- Generator: Adobe Illustrator 19.1.0, SVG Export Plug-In . SVG Version: 6.00 Build 0)  -->
<svg version="1.1" id="Layer_1" xmlns="http://www.w3.org/2000/svg" xmlns:xlink="http://www.w3.org/1999/xlink" x="0px" y="0px"
   viewBox="0 0 200 200" style="enable-background:new 0 0 200 200;" xml:space="preserve">
<style type="text/css">
  .st0{fill:#FFFFFF;}
</style>
<g>
  <g>
    <path class="st0" d="M159,69.6c-7.4-3.6-17.1-5.5-24.1-9.3c-5.6-3.1-9.8-8.2-15.8-10.9c-6.1-3-15.3-6-18.8-6.9
      c-12.4-3.1-22.8,0.9-26.4,3.8c-6.7,5.3-12,14-10,26.5C64.8,78,66.4,82.4,69,86c10.5,14.8,30,19.6,45.6,28.9
      c0.5,0.4,1.1,0.3,1.5-0.2c2.6-3.8,4.7-6.9,9.1-8.7c4.5-1.9,11.5-1.2,17.5-0.9c6.2,0.3,13-0.3,15.2-3.5c2.7-3.9,2.5-11.6-1.6-14
      c-2.2-1.3-5.5-1.3-7.9-2.4c-1.8-0.8-3.1-2.3-4.1-4.4c-0.8-1.8-1.6-4.7-0.5-6.6c1-1.7,3.4-1.3,5.4-0.8c3.9,0.9,10.4,1.8,14.2,0.2
      C164.4,72.9,160.5,70.3,159,69.6z M119.8,67.4c-0.3,1.7-1.4,5.1-3.1,5.3c-1.7,0.2-2.9-1.6-4.2-2.3c-2.1-1.2-5-1.9-7.7-2.8
      c-2.3-0.8-5.5-1.7-6.5-3.9c-1.4-3.3,1.9-4.9,4.2-5.6c2.2-0.7,3.8-0.9,6.7-1.1c4.3-0.2,8.3,0.4,9.8,3.1
      C120.1,61.7,120.3,64.9,119.8,67.4z"/>
  </g>
</g>
<path class="st0" d="M2.1,80c0.2-1.3,0.3-1.6,1.1-2.6C4.4,75.6,19,59.1,41.7,55.2c3-0.4,5.1-0.2,5.6,1c0.9,2.1-0.9,3.3-3,4.5
  C8,82.4,10.6,114.7,10.2,128c0.1,5.4-3.8,6.4-4.8,3.8C1.2,120.2-2.4,101.9,2.1,80z"/>
<path class="st0" d="M26.7,32.3c0.7-0.8,1.2-1.2,2.3-1.5c14-3.5,28-1.3,38.1,3.2c2.3,1,3.3,2.4,1.8,3.4c-1.9,1.1-7.6,4.8-10.8,7.8
  c-0.9,0.8-2.6,0.8-3.5,0.7c-11.8-1.6-18-2.5-35.8,4.3c-2.7,1.1-5.2-0.4-3.9-2.6C17.3,43.5,22.8,36.4,26.7,32.3z"/>
<path class="st0" d="M49.7,18.4c-3.1-0.3-3.1-2.6-1.8-3.5c3.3-2.3,8.7-5.1,14.1-7.3C63.7,7,64.5,6.8,66,7c4,0.4,10.6,3.1,18.2,8.5
  C93.3,22,101.5,34.3,96,33.3c-3.4-0.6-1.9-0.4-6-0.9c-4.1-0.4-6.8,0.1-8.7-0.1c-0.8-0.1-1.5-0.6-2.1-1.1
  C71.6,24.3,62.7,20,49.7,18.4z"/>
<path class="st0" d="M196.1,126.4c-0.8,2.6-1.8,5.8-3.9,4.3c-3.9-2.9-12.5-8.4-20.9-11.5c-0.4-0.1-0.4-0.7-0.2-1.1
  c0.6-1.3,0.9-2.5,1.1-4.1c0.2-1.5,1.3-2.4,2-3.6c2.1-3.4,3.3-9.4,3.8-13.1c0.4-3.4,0.1-7.2-0.6-10.4c-0.3-1.4-1.3-3.1-1.3-4.6
  c0-1.5,0.7-3,0.9-4.7c0.4-5-5.9-9.2-9.4-10.8c-7.8-3.7-16.1-6.9-24.6-11.4c-4.8-2.5-8.6-8-12.4-11c-3.9-3-16.3-7.9-21.3-9.2
  c-1.1-0.4-1.5-0.8-1.7-1.7c-2-9.8-7.8-20.5-18.6-28.9c-3.5-2.7,0.4-4.3,5.2-4.5C170.1-2.5,213.7,67.2,196.1,126.4z"/>
<path class="st0" d="M165.4,92.9c-0.1-0.4-0.2-1.7-0.2-2c0-0.7,1.4-1.6,2.1-2.2c1-0.8,2.2-1.7,2.9-2.1c0.3-0.2,0.5,0.2,0.5,0.3
  c2.8,4.2,1.7,14.7-0.3,19.7c-0.2,0.5-0.7,0.7-0.8,0.3c-1-2.2-2.6-4.3-4.3-5.4c-0.3-0.3-0.3-0.8-0.3-0.9
  C165.5,98.4,165.8,95.8,165.4,92.9z"/>
<path class="st0" d="M130.9,118.6c0.6-1.7,1.3-2.8,2.7-3.6c2.5-1.6,6.8-1.7,10.8-1.9c3.9-0.3,8.2-0.5,11-1.8c1.7-0.8,3.4-3,6-1.9
  c1.2,0.5,1.9,1.7,2.3,2.8c0.4,1.3,0.7,2.5,0.6,4.2c-0.4,4.9-4.3,7.3-5.1,11.8c-0.1,0.7-0.2,1.7-0.6,2.1c-3,3.1-9,2.4-14.4,1.9
  c-1.9-0.2-3.9-0.2-5.2-0.9c-0.9-0.4-1.8-1.3-2.6-2.1c-1.7-1.6-2.7-2.8-4.5-4.7c-0.6-0.7-1.9-1.9-2-2.6
  C129.9,121.4,130.6,119.4,130.9,118.6z"/>
<path class="st0" d="M36,176.2c-2-1.6-2.8-3-4-4.9c-9.3-14.8-14.5-67.3-2.5-85.2c3.8-6.2,7.8-3.4,6.5,1.5
  c-2.3,10.8-0.9,16.9,4.4,28.6c8.3,17.5,33.8,41.7,40.6,50.5c11.6,15.1,15.5,26.1,15.4,29c-0.1,2.3-0.5,3.7-4.5,3.4
  C70.8,197.5,50.6,188.8,36,176.2z"/>
<path class="st0" d="M48,105.4c-6.4-15.6-2.2-29.6,0.6-35c1.4-2.7,2.8-4.4,4.6-3.9c2,0.6,2.4,2.6,2.7,6.3
  c2,31.2,20.9,41.7,44.6,52.7c18.7,9.6,39.9,20.5,57.8,46.9c2.7,3.8,3.1,6.1,0,8.3c-10.9,7.4-20.7,12.6-35.1,15.9
  c-2.2,0.5-4.4,0.1-6.3-4.8C96.9,140.4,63.3,142.7,48,105.4z"/>
<path class="st0" d="M171.9,168.8c-3,3-4.8,0.7-5.8-1.3c-4.3-9.1-8.4-16.7-15.1-24c-1.2-1.2-0.3-2.8,1.4-2.7c2.2,0.2,3.6,0.1,6-1
  c2-0.9,4.4-3.7,5.5-7.8c0.8-3,0.9-3.9,2.7-4.1c0.5,0,1.3,0.1,1.8,0.2c2.2,0.6,4.6,2.5,6.4,3.8c4.5,3.4,11.2,11,12.4,13.4
  c0.7,1.6,0,2.6-0.4,3.5C184.4,153.7,177,163.7,171.9,168.8z"/>
</svg>
