<svg xmlns="http://www.w3.org/2000/svg"
  xmlns:xlink="http://www.w3.org/1999/xlink"
  width="20px" height="20px" viewBox="0 0 20 20">
<path fillRule="evenodd" d="M 19.99 17.88C 19.99 17.88 16.07 14 16.07 14 18.46 10.74 18.19 6.15 15.22 3.21 15.22 3.21 15.22 3.21 15.22 3.21 11.92-0.04 6.57-0.04 3.28 3.21-0.01 6.47-0.01 11.76 3.28 15.01 4.93 16.63 7.09 17.45 9.25 17.45 10.87 17.45 12.5 16.99 13.9 16.07 13.9 16.07 17.86 19.98 17.86 19.98 17.86 19.98 19.99 17.88 19.99 17.88ZM 5.41 12.9C 3.3 10.81 3.3 7.41 5.41 5.32 6.47 4.27 7.86 3.75 9.25 3.75 10.64 3.75 12.03 4.27 13.09 5.32 15.2 7.41 15.2 10.81 13.09 12.9 10.97 14.99 7.53 14.99 5.41 12.9Z" fill="rgb(163,163,163)"/></svg>