<svg xmlns="http://www.w3.org/2000/svg" xmlns:xlink="http://www.w3.org/1999/xlink" fill="#fff" x="0" y="0" viewBox="0 0 42 42">
  <path fillrule="evenodd" d="M 41.98 21C 41.98 21 38.14 23.86 38.14 23.86 38.14 23.86 38.14 22.87 38.14 22.87 37.3 30.57 31.38 36.75 23.81 38 23.81 38 23.98 38 23.98 38 23.98 38 21 41.98 21 41.98 21 41.98 18.02 38 18.02 38 18.02 38 18.19 38 18.19 38 10.92 36.8 5.17 31.05 3.99 23.78 3.99 23.78 3.99 24.02 3.99 24.02 3.99 24.02-0.02 21-0.02 21-0.02 21 3.99 17.98 3.99 17.98 3.99 17.98 3.99 18.22 3.99 18.22 5.17 10.95 10.92 5.2 18.19 4 18.19 4 18.17 4 18.17 4 18.17 4 21 0.17 21 0.17 21 0.17 23.83 4 23.83 4 23.83 4 23.81 4 23.81 4 31.38 5.25 37.3 11.43 38.14 19.13 38.14 19.13 38.14 18.14 38.14 18.14 38.14 18.14 41.98 21 41.98 21ZM 21 5.91C 12.68 5.91 8.91 12.68 8.91 21 8.91 29.32 12.68 36.09 21 36.09 29.32 36.09 33.09 29.32 33.09 21 33.09 12.68 29.32 5.91 21 5.91ZM 28.49 17.53C 27.02 22 25.57 26.8 25.3 27.74 25.3 27.74 23.52 27.74 23.52 27.74 23.52 27.74 21.4 20.9 21.4 20.9 21.4 20.9 19.02 27.74 19.02 27.74 19.02 27.74 17.39 27.74 17.39 27.74 17.39 27.74 14.18 17.36 14.18 17.36 13.99 16.93 13.61 16.89 13.17 16.89 13.17 16.89 12.74 16.89 12.74 16.89 12.74 16.89 12.74 15.74 12.74 15.74 12.74 15.74 17.62 15.74 17.62 15.74 17.62 15.74 17.62 16.89 17.62 16.89 17.62 16.89 16.69 16.89 16.69 16.89 16.38 16.89 16.25 17.19 16.25 17.44 16.25 17.53 17.09 20.18 18.47 24.89 18.47 24.89 18.61 25.58 18.61 25.58 18.61 25.58 18.8 24.82 18.8 24.82 18.8 24.82 20.8 19.04 20.8 19.04 20.8 19.04 20.32 17.36 20.32 17.36 20.13 16.93 19.75 16.89 19.31 16.89 19.31 16.89 18.73 16.89 18.73 16.89 18.73 16.89 18.73 15.74 18.73 15.74 18.73 15.74 24 15.74 24 15.74 24 15.74 24 16.89 24 16.89 24 16.89 22.76 16.89 22.76 16.89 22.46 16.89 22.34 17.19 22.34 17.44 22.34 17.53 23.02 19.7 24.56 24.82 24.56 24.82 24.7 25.58 24.7 25.58 24.7 25.58 24.9 24.77 24.9 24.77 25.95 21.45 27.21 17.53 27.21 17.39 27.21 16.93 26.78 16.89 26.15 16.89 26.15 16.89 25.57 16.89 25.57 16.89 25.57 16.89 25.57 15.74 25.57 15.74 25.57 15.74 30 15.74 30 15.74 30 15.74 30 16.89 30 16.89 29.3 16.93 28.73 16.81 28.49 17.53Z">
  </path>
</svg>
