<?xml version="1.0" encoding="utf-8"?>
<!-- Generator: Adobe Illustrator 19.1.0, SVG Export Plug-In . SVG Version: 6.00 Build 0)  -->
<svg version="1.1" id="Layer_1" xmlns="http://www.w3.org/2000/svg" xmlns:xlink="http://www.w3.org/1999/xlink" x="0px" y="0px"
   viewBox="-87 125 125 52" style="enable-background:new -87 125 125 52;" xml:space="preserve">
<style type="text/css">
  .st0{display:none;}
  .st1{display:inline;fill:#302B2B;}
  .st2{enable-background:new    ;}
  .st3{fill:#E2DDD0;}
  .st4{fill:#898171;}
</style>
<g id="Layer_1_1_" class="st0">
  <rect x="-87" y="125" class="st1" width="118.5" height="52"/>
</g>
<g id="Layer_2">
  <g class="st2">
    <path class="st3" d="M-44.6,125.3c0.1,0,0.2,0,0.2,0.1c0.1,0,0.1,0.1,0.2,0.1c0.1,0.1,0.1,0.1,0.2,0.2l8,10.3c0-0.2,0-0.5-0.1-0.7
      c0-0.2,0-0.5,0-0.7v-9.3h2.5v15.3H-35c-0.2,0-0.4,0-0.6-0.1c-0.1-0.1-0.3-0.2-0.4-0.4l-8-10.2c0,0.2,0,0.5,0,0.7
      c0,0.2,0,0.4,0,0.6v9.4h-2.5v-15.3h1.5C-44.8,125.3-44.7,125.3-44.6,125.3z"/>
    <path class="st3" d="M-16.9,140.6h-2.2c-0.2,0-0.5-0.1-0.6-0.2c-0.2-0.1-0.3-0.3-0.3-0.5l-1.1-3.1h-6.4l-1.1,3.1
      c-0.1,0.2-0.2,0.3-0.3,0.4c-0.2,0.1-0.4,0.2-0.6,0.2h-2.2l6-15.3h2.9L-16.9,140.6z M-26.9,134.8h4.9l-1.9-5.1
      c-0.1-0.2-0.2-0.5-0.3-0.8c-0.1-0.3-0.2-0.6-0.3-1c-0.1,0.4-0.2,0.7-0.3,1c-0.1,0.3-0.2,0.6-0.3,0.8L-26.9,134.8z"/>
    <path class="st3" d="M-6.1,125.3v2.3h-4.6v13h-2.9v-13h-4.6v-2.3H-6.1z"/>
    <path class="st3" d="M-1.1,140.6h-2.9v-15.3h2.9V140.6z"/>
    <path class="st3" d="M17.1,132.9c0,1.1-0.2,2.2-0.6,3.1c-0.4,1-0.9,1.8-1.6,2.5c-0.7,0.7-1.5,1.2-2.4,1.6s-2,0.6-3.2,0.6
      s-2.2-0.2-3.2-0.6c-1-0.4-1.8-0.9-2.5-1.6C3,137.8,2.5,137,2.1,136s-0.6-2-0.6-3.1s0.2-2.2,0.6-3.1c0.4-1,0.9-1.8,1.6-2.5
      c0.7-0.7,1.5-1.2,2.5-1.6c1-0.4,2-0.6,3.2-0.6s2.2,0.2,3.2,0.6s1.8,0.9,2.4,1.6s1.2,1.5,1.6,2.5C16.9,130.8,17.1,131.8,17.1,132.9
      z M14.1,132.9c0-0.8-0.1-1.6-0.3-2.3s-0.5-1.2-1-1.7c-0.4-0.5-0.9-0.8-1.5-1.1c-0.6-0.2-1.3-0.4-2-0.4s-1.4,0.1-2,0.4
      c-0.6,0.2-1.1,0.6-1.5,1.1c-0.4,0.5-0.7,1-1,1.7c-0.2,0.7-0.3,1.4-0.3,2.3s0.1,1.6,0.3,2.3c0.2,0.7,0.5,1.2,1,1.7
      c0.4,0.5,0.9,0.8,1.5,1.1c0.6,0.2,1.3,0.4,2,0.4s1.4-0.1,2-0.4c0.6-0.2,1.1-0.6,1.5-1.1s0.7-1,1-1.7S14.1,133.8,14.1,132.9z"/>
    <path class="st3" d="M21.1,125.3c0.1,0,0.2,0,0.2,0.1c0.1,0,0.1,0.1,0.2,0.1c0.1,0.1,0.1,0.1,0.2,0.2l8,10.3c0-0.2,0-0.5-0.1-0.7
      c0-0.2,0-0.5,0-0.7v-9.3h2.5v15.3h-1.5c-0.2,0-0.4,0-0.6-0.1c-0.1-0.1-0.3-0.2-0.4-0.4l-8-10.2c0,0.2,0,0.5,0,0.7
      c0,0.2,0,0.4,0,0.6v9.4h-2.5v-15.3h1.5C20.9,125.3,21,125.3,21.1,125.3z"/>
  </g>
  <g class="st2">
    <path class="st3" d="M-49.5,150.6c0,1.1-0.2,2.2-0.6,3.1s-0.9,1.8-1.6,2.5c-0.7,0.7-1.5,1.2-2.4,1.6s-2,0.6-3.2,0.6
      s-2.2-0.2-3.2-0.6c-1-0.4-1.8-0.9-2.5-1.6c-0.7-0.7-1.2-1.5-1.6-2.5c-0.4-1-0.6-2-0.6-3.1s0.2-2.2,0.6-3.1c0.4-1,0.9-1.8,1.6-2.5
      c0.7-0.7,1.5-1.2,2.5-1.6c1-0.4,2-0.6,3.2-0.6s2.2,0.2,3.2,0.6s1.8,0.9,2.4,1.6s1.2,1.5,1.6,2.5
      C-49.7,148.4-49.5,149.5-49.5,150.6z M-52.5,150.6c0-0.8-0.1-1.6-0.3-2.3s-0.5-1.2-1-1.7c-0.4-0.5-0.9-0.8-1.5-1.1s-1.3-0.4-2-0.4
      s-1.4,0.1-2,0.4c-0.6,0.2-1.1,0.6-1.5,1.1c-0.4,0.5-0.7,1-1,1.7c-0.2,0.7-0.3,1.4-0.3,2.3s0.1,1.6,0.3,2.3c0.2,0.7,0.5,1.2,1,1.7
      s0.9,0.8,1.5,1.1c0.6,0.2,1.3,0.4,2,0.4s1.4-0.1,2-0.4c0.6-0.2,1.1-0.6,1.5-1.1s0.7-1,1-1.7S-52.5,151.4-52.5,150.6z"/>
    <path class="st3" d="M-37.6,142.9v2.3h-6.8v4.5h5.7v2.3h-5.7v6.2h-2.9v-15.3H-37.6z"/>
  </g>
  <g class="st2">
    <path class="st3" d="M-75.8,161.2v2.3h-6.8v4.3h5.4v2.2h-5.4v4.3h6.8v2.3h-9.7v-15.3H-75.8z"/>
    <path class="st3" d="M-65.3,170.8c0.1,0.2,0.2,0.5,0.3,0.7c0.1-0.3,0.2-0.5,0.3-0.8s0.2-0.5,0.3-0.7l4.5-8.5
      c0.1-0.1,0.1-0.2,0.2-0.3s0.1-0.1,0.2-0.1s0.2,0,0.2-0.1c0.1,0,0.2,0,0.3,0h2.2v15.3h-2.5v-9.9c0-0.2,0-0.4,0-0.6
      c0-0.2,0-0.4,0-0.7l-4.6,8.7c-0.1,0.2-0.2,0.4-0.4,0.5s-0.4,0.2-0.6,0.2h-0.4c-0.2,0-0.4-0.1-0.6-0.2c-0.2-0.1-0.3-0.3-0.4-0.5
      l-4.7-8.7c0,0.2,0,0.5,0.1,0.7c0,0.2,0,0.4,0,0.6v9.9h-2.5v-15.3h2.2c0.1,0,0.2,0,0.3,0c0.1,0,0.2,0,0.2,0.1s0.1,0.1,0.2,0.1
      c0.1,0.1,0.1,0.1,0.2,0.3l4.6,8.5C-65.5,170.4-65.4,170.6-65.3,170.8z"/>
    <path class="st3" d="M-50.4,176.5h-2.9v-15.3h2.9V176.5z"/>
    <path class="st3" d="M-39.9,174.4c0.6,0,1.2-0.1,1.7-0.2c0.5-0.1,0.9-0.3,1.4-0.5v-2.8h-1.9c-0.2,0-0.3-0.1-0.4-0.2
      s-0.2-0.2-0.2-0.4v-1.6h5.1v6.2c-0.4,0.3-0.8,0.5-1.2,0.7c-0.4,0.2-0.9,0.4-1.3,0.5c-0.5,0.1-1,0.2-1.5,0.3
      c-0.5,0.1-1.1,0.1-1.8,0.1c-1.1,0-2.1-0.2-3.1-0.6s-1.8-0.9-2.4-1.6c-0.7-0.7-1.2-1.5-1.6-2.5c-0.4-1-0.6-2-0.6-3.1
      c0-1.2,0.2-2.2,0.6-3.2c0.4-1,0.9-1.8,1.6-2.5c0.7-0.7,1.5-1.2,2.5-1.6s2.1-0.6,3.3-0.6c1.3,0,2.3,0.2,3.2,0.6
      c0.9,0.4,1.7,0.9,2.3,1.4l-0.8,1.3c-0.2,0.3-0.4,0.4-0.6,0.4c-0.2,0-0.3-0.1-0.5-0.2c-0.2-0.1-0.5-0.3-0.7-0.4
      c-0.2-0.1-0.5-0.3-0.8-0.4c-0.3-0.1-0.6-0.2-1-0.2c-0.4-0.1-0.8-0.1-1.2-0.1c-0.8,0-1.4,0.1-2.1,0.4c-0.6,0.3-1.1,0.6-1.6,1.1
      s-0.8,1-1,1.7c-0.2,0.7-0.4,1.4-0.4,2.2c0,0.9,0.1,1.7,0.4,2.4c0.2,0.7,0.6,1.3,1,1.7s1,0.8,1.6,1.1S-40.6,174.4-39.9,174.4z"/>
    <path class="st3" d="M-28.7,170.5v6h-2.9v-15.3h4.7c1,0,1.9,0.1,2.7,0.3c0.7,0.2,1.4,0.5,1.8,0.9c0.5,0.4,0.8,0.9,1,1.4
      c0.2,0.5,0.3,1.1,0.3,1.8c0,0.5-0.1,1-0.2,1.5c-0.2,0.5-0.4,0.9-0.7,1.3c-0.3,0.4-0.6,0.7-1.1,1c-0.4,0.3-0.9,0.5-1.4,0.7
      c0.4,0.2,0.7,0.5,0.9,0.9l3.8,5.7h-2.6c-0.2,0-0.5,0-0.6-0.1c-0.2-0.1-0.3-0.2-0.4-0.4l-3.2-4.9c-0.1-0.2-0.3-0.3-0.4-0.4
      c-0.1-0.1-0.4-0.1-0.6-0.1H-28.7z M-28.7,168.5h1.8c0.5,0,1-0.1,1.4-0.2c0.4-0.1,0.7-0.3,1-0.6c0.3-0.2,0.5-0.5,0.6-0.8
      c0.1-0.3,0.2-0.7,0.2-1.1c0-0.8-0.3-1.4-0.8-1.8c-0.5-0.4-1.3-0.6-2.3-0.6h-1.8V168.5z"/>
    <path class="st3" d="M-4.2,176.5h-2.2c-0.2,0-0.5-0.1-0.6-0.2c-0.2-0.1-0.3-0.3-0.3-0.5l-1.1-3.1h-6.4l-1.1,3.1
      c-0.1,0.2-0.2,0.3-0.3,0.4c-0.2,0.1-0.4,0.2-0.6,0.2h-2.2l6-15.3h2.9L-4.2,176.5z M-14.2,170.7h4.9l-1.9-5.1
      c-0.1-0.2-0.2-0.5-0.3-0.8c-0.1-0.3-0.2-0.6-0.3-1c-0.1,0.4-0.2,0.7-0.3,1c-0.1,0.3-0.2,0.6-0.3,0.8L-14.2,170.7z"/>
    <path class="st3" d="M-0.8,161.2c0.1,0,0.2,0,0.2,0.1c0.1,0,0.1,0.1,0.2,0.1c0.1,0.1,0.1,0.1,0.2,0.2l8,10.3c0-0.2,0-0.5-0.1-0.7
      c0-0.2,0-0.5,0-0.7v-9.3h2.5v15.3H8.8c-0.2,0-0.4,0-0.6-0.1c-0.1-0.1-0.3-0.2-0.4-0.4l-8-10.2c0,0.2,0,0.5,0,0.7s0,0.4,0,0.6v9.4
      h-2.5v-15.3h1.5C-1,161.2-0.9,161.2-0.8,161.2z"/>
    <path class="st3" d="M24.2,161.2v2.3h-4.6v13h-2.9v-13h-4.6v-2.3H24.2z"/>
    <path class="st3" d="M34.2,163.9c-0.1,0.2-0.2,0.3-0.3,0.3s-0.2,0.1-0.4,0.1c-0.1,0-0.3-0.1-0.5-0.2c-0.2-0.1-0.4-0.2-0.6-0.4
      c-0.2-0.1-0.5-0.3-0.8-0.4c-0.3-0.1-0.7-0.2-1.1-0.2c-0.4,0-0.7,0-1,0.1c-0.3,0.1-0.5,0.2-0.7,0.4c-0.2,0.2-0.4,0.4-0.4,0.6
      c-0.1,0.2-0.1,0.5-0.1,0.8c0,0.4,0.1,0.7,0.3,0.9c0.2,0.2,0.5,0.4,0.8,0.6c0.3,0.2,0.7,0.3,1.1,0.5c0.4,0.1,0.9,0.3,1.3,0.4
      c0.4,0.2,0.9,0.3,1.3,0.5s0.8,0.5,1.1,0.8s0.6,0.7,0.8,1.1c0.2,0.4,0.3,1,0.3,1.6c0,0.7-0.1,1.3-0.4,1.9s-0.6,1.1-1,1.6
      c-0.5,0.4-1,0.8-1.7,1.1c-0.7,0.3-1.4,0.4-2.3,0.4c-0.5,0-1,0-1.4-0.1s-0.9-0.2-1.4-0.4s-0.8-0.4-1.2-0.6c-0.4-0.2-0.7-0.5-1-0.8
      l0.8-1.4c0.1-0.1,0.2-0.2,0.3-0.2c0.1-0.1,0.2-0.1,0.4-0.1c0.2,0,0.4,0.1,0.6,0.2s0.4,0.3,0.7,0.5c0.3,0.2,0.6,0.3,1,0.5
      c0.4,0.1,0.8,0.2,1.4,0.2c0.8,0,1.4-0.2,1.9-0.6c0.4-0.4,0.7-0.9,0.7-1.7c0-0.4-0.1-0.7-0.3-1c-0.2-0.3-0.5-0.5-0.8-0.6
      c-0.3-0.2-0.7-0.3-1.1-0.4c-0.4-0.1-0.9-0.3-1.3-0.4c-0.4-0.1-0.9-0.3-1.3-0.5c-0.4-0.2-0.8-0.5-1.1-0.8c-0.3-0.3-0.6-0.7-0.8-1.2
      c-0.2-0.5-0.3-1.1-0.3-1.8c0-0.6,0.1-1.1,0.3-1.6c0.2-0.5,0.5-1,1-1.4c0.4-0.4,1-0.7,1.6-1c0.6-0.2,1.3-0.4,2.1-0.4
      c0.9,0,1.7,0.1,2.5,0.4c0.8,0.3,1.4,0.7,2,1.2L34.2,163.9z"/>
  </g>
  <rect x="-86.2" y="125.3" class="st4" width="36.8" height="15.3"/>
  <rect x="-86.2" y="143" class="st4" width="19.1" height="15.3"/>
</g>
</svg>
